<svg xmlns="http://www.w3.org/2000/svg" viewBox="0 0 512 512" role="img" aria-label="Hematomed icon">
  <rect width="512" height="512" rx="112" fill="#0F1B2D"/>
  <path d="M285 94c-48 0-86 38-86 86 0 49 36 86 86 86 49 0 86-37 86-86 0-48-37-86-86-86Zm0 53c18 0 33 15 33 33s-15 33-33 33-33-15-33-33 15-33 33-33Z" fill="#8B1A2E"/>
  <path d="M214 333c43 41 65 76 65 116 0 31-20 50-49 50-29 0-49-19-49-50 0-34 20-74 33-116Z" fill="#C9A84C"/>
  <path d="M357 333c-25 41-31 77-31 116 0 31 20 50 49 50 29 0 49-19 49-50 0-36-16-76-67-116Z" fill="#C9A84C"/>
</svg>