<svg xmlns="http://www.w3.org/2000/svg" viewBox="0 0 192 192" role="img" aria-label="Hematomed icon">
  <rect width="192" height="192" rx="42" fill="#0F1B2D"/>
  <path d="M103 36c-17 0-31 14-31 31 0 18 13 31 31 31 18 0 31-13 31-31 0-17-13-31-31-31Zm0 18c7 0 13 6 13 13s-6 13-13 13-13-6-13-13 6-13 13-13Z" fill="#8B1A2E"/>
  <path d="M78 118c16 15 24 28 24 43 0 11-7 18-17 18-10 0-17-7-17-18 0-12 7-27 10-43Z" fill="#C9A84C"/>
  <path d="M122 118c-9 15-11 29-11 43 0 11 7 18 17 18 10 0 17-7 17-18 0-13-6-28-23-43Z" fill="#C9A84C"/>
</svg>